<?xml version="1.0" encoding="utf-8"?>
<!-- Generator: Adobe Illustrator 23.0.5, SVG Export Plug-In . SVG Version: 6.00 Build 0)  -->
<svg version="1.1" id="Layer_1" xmlns="http://www.w3.org/2000/svg" xmlns:xlink="http://www.w3.org/1999/xlink" x="0px" y="0px"
	 viewBox="0 0 667.1 667.4" style="enable-background:new 0 0 667.1 667.4;" xml:space="preserve">
<style type="text/css">
	.st0{fill:none;stroke:#FFFFFF;stroke-width:15;stroke-miterlimit:10;}
	.st1{fill:#FFFFFF;}
</style>
<g id="XMLID_1_">
</g>
<g id="XMLID_2_">
</g>
<g id="XMLID_3_">
</g>
<g id="XMLID_4_">
</g>
<g id="XMLID_5_">
</g>
<g>
	<circle class="st0" cx="333.6" cy="333.7" r="310.5"/>
	<g>
		<polygon id="XMLID_100_" class="st1" points="516.1,583.7 151,583.7 264.6,399 306.3,465.7 306.5,465.5 310.2,471.5 313.9,477.4 
			340.1,519.3 347.2,514.8 354.3,510.4 323.6,461.3 319.9,455.4 316.1,449.4 375.4,350.6 		"/>
	</g>
	<g>
		<polygon id="XMLID_6_" class="st1" points="375.4,309.7 316.1,210.9 319.9,204.9 323.6,199 354.3,149.9 347.2,145.4 340.1,141 
			313.9,182.8 310.2,188.8 306.5,194.8 306.3,194.5 264.6,261.2 151,76.6 516.1,76.6 		"/>
	</g>
	<path class="st1" d="M513.6,574.5c0,0-161,152.8-361,0H513.6z"/>
	<path class="st1" d="M514.1,86.3c0,0-161-132-361,0H514.1z"/>
</g>
</svg>
