<?xml version="1.0" encoding="utf-8"?>
<!-- Generator: Adobe Illustrator 23.0.5, SVG Export Plug-In . SVG Version: 6.00 Build 0)  -->
<svg version="1.1" id="Layer_1" xmlns="http://www.w3.org/2000/svg" xmlns:xlink="http://www.w3.org/1999/xlink" x="0px" y="0px"
	 viewBox="0 0 56.7 56.7" style="enable-background:new 0 0 56.7 56.7;" xml:space="preserve">
<style type="text/css">
	.st0{fill:#2A2A2A;}
	.st1{fill:#FFFFFF;}
</style>
<path class="st0" d="M49.1,53.1H7.6c-2.2,0-4-1.8-4-4V7.6c0-2.2,1.8-4,4-4h41.5c2.2,0,4,1.8,4,4v41.5C53.1,51.3,51.3,53.1,49.1,53.1
	z"/>
<g>
	<path class="st1" d="M29.8,28.4c0,4.8-3.9,8.7-8.7,8.7c-4.8,0-8.7-3.9-8.7-8.7c0-4.8,3.9-8.7,8.7-8.7
		C25.9,19.7,29.8,23.6,29.8,28.4z"/>
	<path class="st1" d="M44.3,28.4c0,4-0.6,7.2-1.4,7.2c-0.8,0-1.4-3.2-1.4-7.2c0-4,0.6-7.2,1.4-7.2C43.6,21.1,44.3,24.4,44.3,28.4z"
		/>
	<path class="st1" d="M35.6,37c2.4,0,4.3-3.9,4.3-8.7c0-4.8-1.9-8.7-4.3-8.7c-2.4,0-4.3,3.9-4.3,8.7C31.2,33.1,33.2,37,35.6,37z"/>
</g>
</svg>
