<?xml version="1.0" encoding="utf-8"?>
<!-- Generator: Adobe Illustrator 23.0.5, SVG Export Plug-In . SVG Version: 6.00 Build 0)  -->
<svg version="1.1" id="Layer_1" xmlns:serif="http://www.serif.com/"
	 xmlns="http://www.w3.org/2000/svg" xmlns:xlink="http://www.w3.org/1999/xlink" x="0px" y="0px" viewBox="0 0 1920 1080"
	 style="enable-background:new 0 0 1920 1080;" xml:space="preserve">
<style type="text/css">
	.st0{fill-rule:evenodd;clip-rule:evenodd;fill:#2A2A2A;}
</style>
<g>
	<path class="st0" d="M1500,132.4c0-73-59.3-132.4-132.4-132.4H552.4C479.3,0,420,59.3,420,132.4v815.3c0,73,59.3,132.4,132.4,132.4
		h815.3c73,0,132.4-59.3,132.4-132.4V132.4z M1018.1,540c0,142.2-114.5,257.6-255.8,257.6S506.5,682.3,506.5,540
		S621,282.4,762.3,282.4C903.6,282.4,1018.1,397.8,1018.1,540z M1298.7,540c0,133.9-57.3,242.5-127.9,242.5
		c-70.6,0-127.9-108.6-127.9-242.5s57.3-242.5,127.9-242.5C1241.5,297.5,1298.7,406.1,1298.7,540L1298.7,540z M1413.5,540
		c0,119.9-20.1,217.2-45,217.2c-24.8,0-45-97.3-45-217.2c0-120,20.1-217.2,45-217.2C1393.4,322.8,1413.5,420,1413.5,540z"/>
</g>
</svg>
