<?xml version="1.0" encoding="utf-8"?>
<!-- Generator: Adobe Illustrator 23.0.5, SVG Export Plug-In . SVG Version: 6.00 Build 0)  -->
<svg version="1.1" id="Layer_1" xmlns="http://www.w3.org/2000/svg" xmlns:xlink="http://www.w3.org/1999/xlink" x="0px" y="0px"
	 viewBox="0 0 800 800" style="enable-background:new 0 0 800 800;" xml:space="preserve">
<style type="text/css">
	.st0{fill-rule:evenodd;clip-rule:evenodd;fill:#FFFFFF;}
</style>
<path class="st0" d="M75,400c0-50.6,41-91.7,91.7-91.7s91.7,41,91.7,91.7s-41,91.7-91.7,91.7S75,450.6,75,400z M166.7,358.3
	c-23,0-41.7,18.7-41.7,41.7c0,23,18.7,41.7,41.7,41.7s41.7-18.7,41.7-41.7C208.3,377,189.7,358.3,166.7,358.3z"/>
<path class="st0" d="M308.3,400c0-50.6,41-91.7,91.7-91.7s91.7,41,91.7,91.7s-41,91.7-91.7,91.7S308.3,450.6,308.3,400z M400,358.3
	c-23,0-41.7,18.7-41.7,41.7c0,23,18.7,41.7,41.7,41.7c23,0,41.7-18.7,41.7-41.7C441.7,377,423,358.3,400,358.3z"/>
<path class="st0" d="M633.3,308.3c-50.6,0-91.7,41-91.7,91.7s41,91.7,91.7,91.7s91.7-41,91.7-91.7S684,308.3,633.3,308.3z
	 M591.7,400c0-23,18.7-41.7,41.7-41.7S675,377,675,400c0,23-18.7,41.7-41.7,41.7S591.7,423,591.7,400z"/>
</svg>
