<?xml version="1.0" encoding="utf-8"?>
<!-- Generator: Adobe Illustrator 23.0.5, SVG Export Plug-In . SVG Version: 6.00 Build 0)  -->
<svg version="1.1" id="Layer_1" xmlns:serif="http://www.serif.com/"
	 xmlns="http://www.w3.org/2000/svg" xmlns:xlink="http://www.w3.org/1999/xlink" x="0px" y="0px" viewBox="0 0 1920 1080"
	 style="enable-background:new 0 0 1920 1080;" xml:space="preserve">
<style type="text/css">
	.st0{fill:#2A2A2A;}
</style>
<path id="Dark_Blue" class="st0" d="M1365,1080H555c-74.5,0-135-60.5-135-135V135C420,60.5,480.5,0,555,0h810
	c74.5,0,135,60.5,135,135v810C1500,1019.5,1439.5,1080,1365,1080z M834.7,814.3c254.6,0,393.9-211.1,393.9-393.9
	c0-5.9,0-11.9-0.3-17.8c27-19.4,50.5-44,69.1-71.8c-24.8,11.1-51.6,18.4-79.7,21.9c28.6-17,50.5-44.3,61-76.7
	c-26.7,15.9-56.4,27.3-88,33.5c-25.4-27-61.3-43.7-101-43.7c-76.4,0-138.5,62.1-138.5,138.5c0,10.8,1.3,21.3,3.5,31.6
	c-115-5.7-217.1-61-285.4-144.7c-11.9,20.5-18.6,44.3-18.6,69.7c0,48.1,24.6,90.5,61.6,115.3c-22.7-0.8-44-7-62.6-17.3v1.9
	c0,67,47.8,123.1,111,135.8c-11.6,3.2-23.8,4.9-36.5,4.9c-8.9,0-17.5-0.8-25.9-2.4c17.5,55.1,68.9,95,129.3,96.1
	c-47.5,37.3-107.2,59.4-172,59.4c-11.1,0-22.1-0.5-32.9-1.9C683.8,791.4,756.7,814.3,834.7,814.3z"/>
</svg>
