<?xml version="1.0" encoding="utf-8"?>
<!-- Generator: Adobe Illustrator 23.0.5, SVG Export Plug-In . SVG Version: 6.00 Build 0)  -->
<svg version="1.1" id="Layer_1" xmlns="http://www.w3.org/2000/svg" xmlns:xlink="http://www.w3.org/1999/xlink" x="0px" y="0px"
	 viewBox="0 0 56.7 56.7" style="enable-background:new 0 0 56.7 56.7;" xml:space="preserve">
<style type="text/css">
	.st0{fill:#2A2A2A;}
</style>
<path class="st0" d="M49.2,3.6H7.5c-2.1,0-3.9,1.7-3.9,3.9v41.8c0,2.1,1.7,3.9,3.9,3.9h41.8c2.1,0,3.9-1.7,3.9-3.9V7.5
	C53.1,5.3,51.4,3.6,49.2,3.6z M38.2,24.5c0,0.2,0,0.4,0,0.7c0,6.7-5.1,14.5-14.5,14.5c-2.9,0-5.5-0.8-7.8-2.3c0.4,0,0.8,0.1,1.2,0.1
	c2.4,0,4.6-0.8,6.3-2.2c-2.2,0-4.1-1.5-4.7-3.5c0.3,0.1,0.6,0.1,1,0.1c0.5,0,0.9-0.1,1.3-0.2c-2.3-0.5-4.1-2.5-4.1-5v-0.1
	c0.7,0.4,1.5,0.6,2.3,0.6C17.9,26.3,17,24.7,17,23c0-0.9,0.3-1.8,0.7-2.6c2.5,3.1,6.3,5.1,10.5,5.3c-0.1-0.4-0.1-0.8-0.1-1.2
	c0-2.8,2.3-5.1,5.1-5.1c1.5,0,2.8,0.6,3.7,1.6c1.2-0.2,2.2-0.6,3.2-1.2c-0.4,1.2-1.2,2.2-2.2,2.8c1-0.1,2-0.4,2.9-0.8
	C40.1,22.9,39.2,23.8,38.2,24.5z"/>
</svg>
